<svg width="512" height="512" viewBox="0 0 512 512" fill="none" xmlns="http://www.w3.org/2000/svg">
<g clip-path="url(#clip0_4611_2094)">
<path d="M53.3333 277.375C53.3333 331.125 74.6856 382.675 112.693 420.682C150.7 458.689 202.249 480.042 256 480.042C309.751 480.042 361.3 458.689 399.307 420.682C437.314 382.675 458.667 331.125 458.667 277.375C458.667 223.624 437.314 172.075 399.307 134.068C361.3 96.0606 309.751 74.7083 256 74.7083C202.249 74.7083 150.7 96.0606 112.693 134.068C74.6856 172.075 53.3333 223.624 53.3333 277.375Z" fill="#ECB7AA" stroke="#A15549" stroke-width="21.3333" stroke-linecap="round" stroke-linejoin="round"/>
<path d="M141.931 444.771L85.3333 501.347" stroke="#A15549" stroke-width="21.3333" stroke-linecap="round" stroke-linejoin="round"/>
<path d="M370.021 444.729L426.661 501.348" stroke="#A15549" stroke-width="21.3333" stroke-linecap="round" stroke-linejoin="round"/>
<path d="M181.333 288.042H266.667V160.042" stroke="#A15549" stroke-width="21.3333" stroke-linecap="round" stroke-linejoin="round"/>
<path d="M167.092 48.9C160.406 38.6996 151.607 30.0541 141.29 23.5481C130.974 17.0421 119.38 12.8274 107.294 11.1889C95.208 9.55043 82.911 10.5265 71.2347 14.051C59.5584 17.5755 48.7752 23.5663 39.6141 31.6182C30.4531 39.6702 23.128 49.5955 18.1342 60.7229C13.1404 71.8504 10.5944 83.9204 10.6683 96.1168C10.7421 108.313 13.4343 120.352 18.5625 131.418C23.6908 142.484 31.1356 152.32 40.3935 160.26" stroke="#A15549" stroke-width="21.3333" stroke-linecap="round" stroke-linejoin="round"/>
<path d="M344.917 48.8946C351.603 38.6943 360.402 30.0488 370.719 23.5428C381.035 17.0368 392.629 12.822 404.715 11.1835C416.801 9.54506 429.098 10.5211 440.774 14.0456C452.45 17.5701 463.234 23.5609 472.395 31.6128C481.556 39.6648 488.881 49.5901 493.875 60.7175C498.868 71.845 501.414 83.9151 501.341 96.1115C501.267 108.308 498.575 120.346 493.446 131.412C488.318 142.478 480.873 152.314 471.615 160.255" stroke="#A15549" stroke-width="21.3333" stroke-linecap="round" stroke-linejoin="round"/>
</g>
<defs>
<clipPath id="clip0_4611_2094">
<rect width="512" height="512" fill="white"/>
</clipPath>
</defs>
</svg>
