<svg width="512" height="512" viewBox="0 0 512 512" fill="none" xmlns="http://www.w3.org/2000/svg">
<path d="M94.75 415.995V319.995C94.75 317.166 93.6262 314.453 91.6258 312.452C89.6254 310.452 86.9123 309.328 84.0833 309.328H41.4167C38.5877 309.328 35.8746 310.452 33.8742 312.452C31.8738 314.453 30.75 317.166 30.75 319.995V415.995" fill="#ECB7AA"/>
<path d="M94.75 415.995V319.995C94.75 317.166 93.6262 314.453 91.6258 312.452C89.6254 310.452 86.9123 309.328 84.0833 309.328H41.4167C38.5877 309.328 35.8746 310.452 33.8742 312.452C31.8738 314.453 30.75 317.166 30.75 319.995V415.995" stroke="#A15549" stroke-width="16" stroke-linecap="round" stroke-linejoin="round"/>
<path d="M222.75 416.005V213.339C222.75 210.51 221.626 207.796 219.626 205.796C217.625 203.796 214.912 202.672 212.083 202.672H169.417C166.588 202.672 163.875 203.796 161.874 205.796C159.874 207.796 158.75 210.51 158.75 213.339V416.005" fill="#ECB7AA"/>
<path d="M222.75 416.005V213.339C222.75 210.51 221.626 207.796 219.626 205.796C217.625 203.796 214.912 202.672 212.083 202.672H169.417C166.588 202.672 163.875 203.796 161.874 205.796C159.874 207.796 158.75 210.51 158.75 213.339V416.005" stroke="#A15549" stroke-width="16" stroke-linecap="round" stroke-linejoin="round"/>
<path d="M350.75 415.995V255.995C350.75 253.166 349.626 250.453 347.626 248.452C345.625 246.452 342.912 245.328 340.083 245.328H297.417C294.588 245.328 291.875 246.452 289.874 248.452C287.874 250.453 286.75 253.166 286.75 255.995V415.995" fill="#ECB7AA"/>
<path d="M350.75 415.995V255.995C350.75 253.166 349.626 250.453 347.626 248.452C345.625 246.452 342.912 245.328 340.083 245.328H297.417C294.588 245.328 291.875 246.452 289.874 248.452C287.874 250.453 286.75 253.166 286.75 255.995V415.995" stroke="#A15549" stroke-width="16" stroke-linecap="round" stroke-linejoin="round"/>
<path d="M478.75 416V106.667C478.75 103.838 477.626 101.125 475.626 99.1242C473.625 97.1238 470.912 96 468.083 96H425.417C422.588 96 419.875 97.1238 417.874 99.1242C415.874 101.125 414.75 103.838 414.75 106.667V416" fill="#ECB7AA"/>
<path d="M478.75 416V106.667C478.75 103.838 477.626 101.125 475.626 99.1242C473.625 97.1238 470.912 96 468.083 96H425.417C422.588 96 419.875 97.1238 417.874 99.1242C415.874 101.125 414.75 103.838 414.75 106.667V416" stroke="#A15549" stroke-width="16" stroke-linecap="round" stroke-linejoin="round"/>
<path d="M9.42188 416H500.089" stroke="#A15549" stroke-width="16" stroke-linecap="round" stroke-linejoin="round"/>
</svg>
