<svg width="512" height="512" viewBox="0 0 512 512" fill="none" xmlns="http://www.w3.org/2000/svg">
<path d="M10.75 501.328H501.417" stroke="#A15549" stroke-width="16" stroke-linecap="round" stroke-linejoin="round"/>
<path d="M96 405.339C96 402.51 94.8762 399.796 92.8758 397.796C90.8754 395.796 88.1623 394.672 85.3333 394.672H42.6667C39.8377 394.672 37.1246 395.796 35.1242 397.796C33.1238 399.796 32 402.51 32 405.339V501.339H96V405.339Z" fill="#ECB7AA" stroke="#A15549" stroke-width="16" stroke-linecap="round" stroke-linejoin="round"/>
<path d="M224 298.667C224 295.838 222.876 293.125 220.876 291.124C218.875 289.124 216.162 288 213.333 288H170.667C167.838 288 165.125 289.124 163.124 291.124C161.124 293.125 160 295.838 160 298.667V501.333H224V298.667Z" fill="#ECB7AA" stroke="#A15549" stroke-width="16" stroke-linecap="round" stroke-linejoin="round"/>
<path d="M352 341.339C352 338.51 350.876 335.796 348.876 333.796C346.875 331.796 344.162 330.672 341.333 330.672H298.667C295.838 330.672 293.125 331.796 291.124 333.796C289.124 335.796 288 338.51 288 341.339V501.339H352V341.339Z" fill="#ECB7AA" stroke="#A15549" stroke-width="16" stroke-linecap="round" stroke-linejoin="round"/>
<path d="M480 191.995C480 189.166 478.876 186.453 476.876 184.452C474.875 182.452 472.162 181.328 469.333 181.328H426.667C423.838 181.328 421.125 182.452 419.124 184.452C417.124 186.453 416 189.166 416 191.995V501.328H480V191.995Z" fill="#ECB7AA" stroke="#A15549" stroke-width="16" stroke-linecap="round" stroke-linejoin="round"/>
<path d="M32.0859 245.328C32.0859 249.53 32.9136 253.692 34.5218 257.574C36.1299 261.456 38.487 264.984 41.4585 267.956C44.43 270.927 47.9576 273.284 51.8401 274.892C55.7225 276.5 59.8836 277.328 64.0859 277.328C68.2882 277.328 72.4494 276.5 76.3318 274.892C80.2142 273.284 83.7419 270.927 86.7134 267.956C89.6848 264.984 92.0419 261.456 93.6501 257.574C95.2582 253.692 96.0859 249.53 96.0859 245.328C96.0859 236.841 92.7145 228.702 86.7134 222.701C80.7122 216.7 72.5729 213.328 64.0859 213.328C55.599 213.328 47.4597 216.7 41.4585 222.701C35.4574 228.702 32.0859 236.841 32.0859 245.328Z" fill="#ECB7AA" stroke="#A15549" stroke-width="16" stroke-linecap="round" stroke-linejoin="round"/>
<path d="M160.086 138.672C160.086 147.159 163.457 155.298 169.459 161.299C175.46 167.3 183.599 170.672 192.086 170.672C200.573 170.672 208.712 167.3 214.713 161.299C220.715 155.298 224.086 147.159 224.086 138.672C224.086 130.185 220.715 122.046 214.713 116.044C208.712 110.043 200.573 106.672 192.086 106.672C183.599 106.672 175.46 110.043 169.459 116.044C163.457 122.046 160.086 130.185 160.086 138.672Z" fill="#ECB7AA" stroke="#A15549" stroke-width="16" stroke-linecap="round" stroke-linejoin="round"/>
<path d="M288.086 181.328C288.086 185.53 288.914 189.692 290.522 193.574C292.13 197.456 294.487 200.984 297.459 203.956C300.43 206.927 303.958 209.284 307.84 210.892C311.722 212.5 315.884 213.328 320.086 213.328C324.288 213.328 328.449 212.5 332.332 210.892C336.214 209.284 339.742 206.927 342.713 203.956C345.685 200.984 348.042 197.456 349.65 193.574C351.258 189.692 352.086 185.53 352.086 181.328C352.086 172.841 348.715 164.702 342.713 158.701C336.712 152.7 328.573 149.328 320.086 149.328C311.599 149.328 303.46 152.7 297.459 158.701C291.457 164.702 288.086 172.841 288.086 181.328Z" fill="#ECB7AA" stroke="#A15549" stroke-width="16" stroke-linecap="round" stroke-linejoin="round"/>
<path d="M416.086 42.6719C416.086 51.1588 419.457 59.2981 425.459 65.2993C431.46 71.3005 439.599 74.6719 448.086 74.6719C456.573 74.6719 464.712 71.3005 470.713 65.2993C476.715 59.2981 480.086 51.1588 480.086 42.6719C480.086 34.1849 476.715 26.0456 470.713 20.0445C464.712 14.0433 456.573 10.6719 448.086 10.6719C439.599 10.6719 431.46 14.0433 425.459 20.0445C419.457 26.0456 416.086 34.1849 416.086 42.6719Z" fill="#ECB7AA" stroke="#A15549" stroke-width="16" stroke-linecap="round" stroke-linejoin="round"/>
<path d="M90.9922 222.927L167.515 159.141" stroke="#A15549" stroke-width="16" stroke-linecap="round" stroke-linejoin="round"/>
<path d="M222.438 148.766L289.723 171.187" stroke="#A15549" stroke-width="16" stroke-linecap="round" stroke-linejoin="round"/>
<path d="M422.481 61.875L342.289 155.422" stroke="#A15549" stroke-width="16" stroke-linecap="round" stroke-linejoin="round"/>
</svg>
