<svg width="512" height="512" viewBox="0 0 512 512" fill="none" xmlns="http://www.w3.org/2000/svg">
<path d="M88.4877 299.391L11.9437 430.527C8.99974 435.604 11.3464 438.953 17.1277 437.972L88.7651 425.833L113.597 494.1C115.602 499.604 119.698 500.009 122.706 494.953L188.093 385.129" stroke="#A15549" stroke-width="16" stroke-linecap="round" stroke-linejoin="round"/>
<path d="M423.496 299.391L500.04 430.527C502.984 435.604 500.637 438.953 494.856 437.972L423.219 425.833L398.387 494.1C396.381 499.604 392.285 500.009 389.277 494.953L323.891 385.129" stroke="#A15549" stroke-width="16" stroke-linecap="round" stroke-linejoin="round"/>
<path d="M64 205.484C64 230.698 68.9662 255.665 78.6151 278.96C88.264 302.254 102.407 323.42 120.235 341.249C138.064 359.078 159.23 373.22 182.525 382.869C205.819 392.518 230.786 397.484 256 397.484C281.214 397.484 306.181 392.518 329.475 382.869C352.77 373.22 373.936 359.078 391.764 341.249C409.593 323.42 423.736 302.254 433.385 278.96C443.034 255.665 448 230.698 448 205.484C448 180.271 443.034 155.304 433.385 132.009C423.736 108.715 409.593 87.5487 391.764 69.7199C373.936 51.891 352.77 37.7484 329.475 28.0995C306.181 18.4506 281.214 13.4844 256 13.4844C230.786 13.4844 205.819 18.4506 182.525 28.0995C159.23 37.7484 138.064 51.891 120.235 69.7199C102.407 87.5487 88.264 108.715 78.6151 132.009C68.9662 155.304 64 180.271 64 205.484Z" fill="#ECB7AA" stroke="#A15549" stroke-width="16" stroke-linecap="round" stroke-linejoin="round"/>
<path d="M340.068 152.797L239.375 253.49C237.889 254.977 236.125 256.156 234.183 256.961C232.241 257.766 230.16 258.18 228.058 258.18C225.956 258.18 223.874 257.766 221.932 256.961C219.99 256.156 218.226 254.977 216.74 253.49L180.047 216.797" stroke="#A15549" stroke-width="16" stroke-linecap="round" stroke-linejoin="round"/>
</svg>
