<svg width="512" height="512" viewBox="0 0 512 512" fill="none" xmlns="http://www.w3.org/2000/svg">
<path d="M12.8 51.2001V140.8H435.2V51.2001L396.8 12.8H51.2L12.8 51.2001Z" fill="#ECB7AA"/>
<path d="M432 144V58.6667C432 35.2 412.8 16 389.333 16H58.6667C35.2 16 16 35.2 16 58.6667V144M432 144H16M432 144H293.333M432 144V222.933M16 144V353.067C16 376.533 35.2 395.733 58.6667 395.733H154.667M16 144H154.667M293.333 144H154.667M293.333 144V222.933M154.667 395.733V144M154.667 395.733H214.4M16 272H240" stroke="#A15549" stroke-width="12.8" stroke-miterlimit="10" stroke-linecap="round" stroke-linejoin="round"/>
<path d="M495.994 496.002L442.274 442.285ZM470.394 374.4C470.394 427.42 427.413 470.4 374.394 470.4C321.374 470.4 278.394 427.42 278.394 374.4C278.394 321.382 321.374 278.4 374.394 278.4C427.413 278.4 470.394 321.382 470.394 374.4Z" fill="#ECB7AA"/>
<path d="M495.994 496.002L442.274 442.285M470.394 374.4C470.394 427.42 427.413 470.4 374.394 470.4C321.374 470.4 278.394 427.42 278.394 374.4C278.394 321.382 321.374 278.4 374.394 278.4C427.413 278.4 470.394 321.382 470.394 374.4Z" stroke="#A15549" stroke-width="12.8" stroke-miterlimit="10" stroke-linecap="round" stroke-linejoin="round"/>
</svg>
