<svg width="512" height="512" viewBox="0 0 512 512" fill="none" xmlns="http://www.w3.org/2000/svg">
<path d="M133.317 468.502C81.3988 438.642 42.1968 390.821 23.1009 334.055C4.00495 277.288 6.33429 215.496 29.6498 160.328C52.9653 105.16 95.6564 60.4265 149.675 34.5599C203.694 8.69341 265.31 3.48085 322.906 19.9048" stroke="#A15549" stroke-width="16" stroke-linecap="round" stroke-linejoin="round"/>
<path d="M378.686 43.5C430.478 73.2298 469.648 120.83 488.852 177.376C508.057 233.922 505.977 295.531 483.002 350.653C460.028 405.776 417.737 450.625 364.058 476.794C310.379 502.963 248.997 508.655 191.422 492.801" stroke="#A15549" stroke-width="16" stroke-linecap="round" stroke-linejoin="round"/>
<path d="M57.1719 488.873L133.332 468.457L112.916 392.297" stroke="#A15549" stroke-width="16" stroke-linecap="round" stroke-linejoin="round"/>
<path d="M454.832 23.125L378.672 43.541L399.088 119.701" stroke="#A15549" stroke-width="16" stroke-linecap="round" stroke-linejoin="round"/>
<path d="M187.5 177.944C187.5 197.17 195.137 215.608 208.732 229.202C222.327 242.797 240.765 250.434 259.991 250.434C279.216 250.434 297.655 242.797 311.249 229.202C324.844 215.608 332.481 197.17 332.481 177.944C332.481 158.718 324.844 140.28 311.249 126.685C297.655 113.091 279.216 105.453 259.991 105.453C240.765 105.453 222.327 113.091 208.732 126.685C195.137 140.28 187.5 158.718 187.5 177.944Z" fill="#ECB7AA" stroke="#A15549" stroke-width="16" stroke-linecap="round" stroke-linejoin="round"/>
<path d="M372.79 361.936C364.451 339.06 349.278 319.301 329.329 305.34C309.379 291.379 285.619 283.891 261.27 283.891C236.921 283.891 213.161 291.379 193.211 305.34C173.262 319.301 158.089 339.06 149.75 361.936" stroke="#A15549" stroke-width="16" stroke-linecap="round" stroke-linejoin="round"/>
<path d="M209.078 126.328C233.803 172.28 288.715 177.933 332.449 177.933" stroke="#A15549" stroke-width="16" stroke-linecap="round" stroke-linejoin="round"/>
</svg>
