<svg width="512" height="512" viewBox="0 0 512 512" fill="none" xmlns="http://www.w3.org/2000/svg">
<path d="M391.211 23.3699C389.481 20.1314 386.906 17.4234 383.758 15.5353C380.609 13.6472 377.006 12.6499 373.334 12.6499C369.663 12.6499 366.062 13.6472 362.913 15.5353C359.764 17.4234 357.187 20.1314 355.457 23.3699L247.595 228.916C246.002 231.943 245.225 235.335 245.343 238.753C245.458 242.172 246.463 245.503 248.257 248.415C250.074 251.344 252.611 253.759 255.623 255.431C258.635 257.104 262.027 257.978 265.473 257.972H481.195C484.643 257.978 488.033 257.104 491.045 255.431C494.059 253.759 496.594 251.344 498.411 248.415C500.206 245.503 501.21 242.172 501.328 238.753C501.443 235.335 500.666 231.943 499.073 228.916L391.211 23.3699Z" fill="#ECB7AA" stroke="#A15549" stroke-width="12.8" stroke-linecap="round" stroke-linejoin="round"/>
<path d="M10.6689 352H458.669" stroke="#A15549" stroke-width="12.8" stroke-linecap="round" stroke-linejoin="round"/>
<path d="M458.669 298.667V394.667C458.669 400.324 456.42 405.751 452.42 409.751C448.42 413.751 442.993 416 437.336 416H32.0023C26.3443 416 20.9181 413.751 16.9173 409.751C12.9166 405.751 10.6689 400.324 10.6689 394.667V117.333C10.6689 111.675 12.9166 106.249 16.9173 102.248C20.9181 98.2477 26.3443 96 32.0023 96H224.002" stroke="#A15549" stroke-width="12.8" stroke-linecap="round" stroke-linejoin="round"/>
<path d="M170.669 501.333C189.993 476.932 201.184 447.089 202.669 416" stroke="#A15549" stroke-width="12.8" stroke-linecap="round" stroke-linejoin="round"/>
<path d="M298.669 501.333C279.345 476.932 268.154 447.089 266.669 416" stroke="#A15549" stroke-width="12.8" stroke-linecap="round" stroke-linejoin="round"/>
<path d="M138.669 501.337H330.669" stroke="#A15549" stroke-width="12.8" stroke-linecap="round" stroke-linejoin="round"/>
<path d="M373.333 204.692C370.387 204.692 368 202.304 368 199.358C368 196.413 370.387 194.025 373.333 194.025" stroke="#A15549" stroke-width="12.8"/>
<path d="M373.331 204.692C376.277 204.692 378.664 202.304 378.664 199.358C378.664 196.413 376.277 194.025 373.331 194.025" stroke="#A15549" stroke-width="12.8"/>
<path d="M373.331 151.35V87.3501" stroke="#A15549" stroke-width="12.8" stroke-linecap="round" stroke-linejoin="round"/>
</svg>
