<svg width="512" height="512" viewBox="0 0 512 512" fill="none" xmlns="http://www.w3.org/2000/svg">
<path d="M329.761 293.655L191.056 168.017C115.673 92.6344 226.487 -52.1008 329.761 64.9939C433.036 -52.1008 543.346 93.1368 468.464 168.017L329.761 293.655Z" fill="#ECB7AA" stroke="#A15549" stroke-width="16" stroke-linecap="round" stroke-linejoin="round"/>
<path d="M20.6094 402.875L110.127 477.473C123.294 488.445 139.89 494.453 157.029 494.453H393.03C409.89 494.453 423.556 480.786 423.556 463.927C423.556 430.209 396.221 402.875 362.504 402.875H198.43" stroke="#A15549" stroke-width="16" stroke-linecap="round" stroke-linejoin="round"/>
<path d="M130.504 366.22L157.978 393.693C173.151 408.868 197.752 408.868 212.925 393.693C228.098 378.521 228.098 353.92 212.925 338.747L170.278 296.1C156.539 282.359 137.904 274.641 118.473 274.641H20.6094" stroke="#A15549" stroke-width="16" stroke-linecap="round" stroke-linejoin="round"/>
<path d="M350.608 100.75H308.709V136.336H273.125V178.235H308.709V213.819H350.608V178.235H386.194V136.336H350.608V100.75Z" stroke="#A15549" stroke-width="16" stroke-linecap="round" stroke-linejoin="round"/>
</svg>
