<svg width="512" height="512" viewBox="0 0 512 512" fill="none" xmlns="http://www.w3.org/2000/svg">
<path d="M344.525 158.713L405.505 98.125" stroke="#A15549" stroke-width="12.8" stroke-linecap="round" stroke-linejoin="round"/>
<path d="M432.853 109.232C454.533 109.232 472.106 91.6575 472.106 69.9785C472.106 48.2995 454.533 30.7251 432.853 30.7251C411.173 30.7251 393.6 48.2995 393.6 69.9785C393.6 91.6575 411.173 109.232 432.853 109.232Z" fill="#ECB7AA" stroke="#A15549" stroke-width="12.8" stroke-linecap="round" stroke-linejoin="round"/>
<path d="M363.426 373.788L404.917 415.553" stroke="#A15549" stroke-width="12.8" stroke-linecap="round" stroke-linejoin="round"/>
<path d="M433.029 482.157C454.708 482.157 472.282 464.581 472.282 442.903C472.282 421.224 454.708 403.65 433.029 403.65C411.349 403.65 393.775 421.224 393.775 442.903C393.775 464.581 411.349 482.157 433.029 482.157Z" fill="#ECB7AA" stroke="#A15549" stroke-width="12.8" stroke-linecap="round" stroke-linejoin="round"/>
<path d="M148.275 158.713L87.2754 98.125" stroke="#A15549" stroke-width="12.8" stroke-linecap="round" stroke-linejoin="round"/>
<path d="M59.9536 109.232C81.6326 109.232 99.2069 91.6575 99.2069 69.9785C99.2069 48.2995 81.6326 30.7251 59.9536 30.7251C38.2746 30.7251 20.7002 48.2995 20.7002 69.9785C20.7002 91.6575 38.2746 109.232 59.9536 109.232Z" fill="#ECB7AA" stroke="#A15549" stroke-width="12.8" stroke-linecap="round" stroke-linejoin="round"/>
<path d="M129.385 373.788L87.875 415.553" stroke="#A15549" stroke-width="12.8" stroke-linecap="round" stroke-linejoin="round"/>
<path d="M59.7279 482.157C81.407 482.157 98.9813 464.581 98.9813 442.903C98.9813 421.224 81.407 403.65 59.7279 403.65C38.0489 403.65 20.4746 421.224 20.4746 442.903C20.4746 464.581 38.0489 482.157 59.7279 482.157Z" fill="#ECB7AA" stroke="#A15549" stroke-width="12.8" stroke-linecap="round" stroke-linejoin="round"/>
<path d="M334.725 246.625H393.605" stroke="#A15549" stroke-width="12.8" stroke-linecap="round" stroke-linejoin="round"/>
<path d="M432.853 285.882C454.533 285.882 472.106 268.306 472.106 246.629C472.106 224.949 454.533 207.375 432.853 207.375C411.173 207.375 393.6 224.949 393.6 246.629C393.6 268.306 411.173 285.882 432.853 285.882Z" fill="#ECB7AA" stroke="#A15549" stroke-width="12.8" stroke-linecap="round" stroke-linejoin="round"/>
<path d="M158.08 246.625H99.2002" stroke="#A15549" stroke-width="12.8" stroke-linecap="round" stroke-linejoin="round"/>
<path d="M59.9536 285.882C81.6326 285.882 99.2069 268.306 99.2069 246.629C99.2069 224.949 81.6326 207.375 59.9536 207.375C38.2746 207.375 20.7002 224.949 20.7002 246.629C20.7002 268.306 38.2746 285.882 59.9536 285.882Z" fill="#ECB7AA" stroke="#A15549" stroke-width="12.8" stroke-linecap="round" stroke-linejoin="round"/>
<path d="M187.7 217.183C187.702 206.568 190.573 196.151 196.01 187.034C201.447 177.917 209.249 170.44 218.587 165.393C227.925 160.346 238.455 157.918 249.059 158.365C259.665 158.812 269.954 162.118 278.833 167.932C287.714 173.747 294.858 181.855 299.51 191.397C304.159 200.939 306.143 211.561 305.252 222.139C304.361 232.715 300.626 242.857 294.444 251.484C288.262 260.114 279.861 266.911 270.132 271.156C263.13 274.214 257.171 279.246 252.987 285.641C248.802 292.035 246.576 299.511 246.58 307.152V315.316" stroke="#A15549" stroke-width="12.8" stroke-linecap="round" stroke-linejoin="round"/>
<path d="M246.182 364.376C243.472 364.376 241.275 362.18 241.275 359.469C241.275 356.759 243.472 354.562 246.182 354.562" stroke="#A15549" stroke-width="12.8"/>
<path d="M246.188 364.376C248.898 364.376 251.094 362.18 251.094 359.469C251.094 356.759 248.898 354.562 246.188 354.562" stroke="#A15549" stroke-width="12.8"/>
</svg>
