<svg width="512" height="512" viewBox="0 0 512 512" fill="none" xmlns="http://www.w3.org/2000/svg">
<path d="M355.146 332.25H465.012C465.012 332.25 486.346 332.25 486.346 353.583V463.45C486.346 463.45 486.346 484.783 465.012 484.783H355.146C355.146 484.783 333.812 484.783 333.812 463.45V353.583C333.812 353.583 333.812 332.25 355.146 332.25Z" fill="#ECB7AA" stroke="#A15549" stroke-width="16" stroke-linejoin="round"/>
<path d="M184.438 106.672H334.584C376.259 106.672 410.042 140.456 410.042 182.13C410.042 223.805 376.259 257.588 334.584 257.588H262.352" stroke="#A15549" stroke-width="16" stroke-linejoin="round"/>
<path d="M270.007 257.578H183.646C141.971 257.578 108.188 291.362 108.188 333.036C108.188 374.711 141.971 408.494 183.646 408.494H337" stroke="#A15549" stroke-width="16" stroke-linejoin="round"/>
<path d="M25.6875 106.647C25.6875 117.071 27.7408 127.394 31.73 137.025C35.7193 146.656 41.5665 155.407 48.9378 162.778C56.309 170.149 65.0599 175.996 74.6909 179.986C84.3219 183.975 94.6443 186.028 105.069 186.028C115.493 186.028 125.816 183.975 135.447 179.986C145.078 175.996 153.829 170.149 161.2 162.778C168.571 155.407 174.418 146.656 178.408 137.025C182.397 127.394 184.45 117.071 184.45 106.647C184.45 85.5937 176.087 65.4028 161.2 50.5159C146.313 35.629 126.122 27.2656 105.069 27.2656C84.0156 27.2656 63.8246 35.629 48.9378 50.5159C34.0509 65.4028 25.6875 85.5937 25.6875 106.647Z" fill="#ECB7AA" stroke="#A15549" stroke-width="16"/>
</svg>
