<svg width="512" height="512" viewBox="0 0 512 512" fill="none" xmlns="http://www.w3.org/2000/svg">
<path d="M44.2708 173.5C32.4886 173.5 22.9375 163.949 22.9375 152.167V43.0833C22.9375 31.3014 32.4886 21.75 44.2708 21.75H153.354C165.136 21.75 174.687 31.3014 174.687 43.0833V152.167C174.687 163.949 165.136 173.5 153.354 173.5H44.2708Z" fill="#ECB7AA" stroke="#A15549" stroke-width="16" stroke-linecap="round" stroke-linejoin="round"/>
<path d="M44.2708 483.829C32.4886 483.829 22.9375 474.278 22.9375 462.495V353.411C22.9375 341.629 32.4886 332.078 44.2708 332.078H153.354C165.136 332.078 174.687 341.629 174.687 353.411V462.495C174.687 474.278 165.136 483.829 153.354 483.829H44.2708Z" fill="#ECB7AA" stroke="#A15549" stroke-width="16" stroke-linecap="round" stroke-linejoin="round"/>
<path d="M358.771 173.5C346.988 173.5 337.438 163.949 337.438 152.167V43.0833C337.438 31.3014 346.988 21.75 358.771 21.75H467.852C479.635 21.75 489.186 31.3014 489.186 43.0833V152.167C489.186 163.949 479.635 173.5 467.852 173.5H358.771Z" fill="#ECB7AA" stroke="#A15549" stroke-width="16" stroke-linecap="round" stroke-linejoin="round"/>
<path d="M174.688 97.6719L337.438 97.6721" stroke="#A15549" stroke-width="16" stroke-linecap="round" stroke-linejoin="round"/>
<path d="M174.688 408H489.187" stroke="#A15549" stroke-width="16" stroke-linecap="round" stroke-linejoin="round"/>
<path d="M174.688 332.086L335.367 171.406" stroke="#A15549" stroke-width="16" stroke-linecap="round" stroke-linejoin="round"/>
<path d="M406.938 325.75L489.186 408.001L406.938 490.251" stroke="#A15549" stroke-width="16" stroke-linecap="round" stroke-linejoin="round"/>
</svg>
