<svg width="512" height="512" viewBox="0 0 512 512" fill="none" xmlns="http://www.w3.org/2000/svg">
<path d="M256 394.641L256 117.307" stroke="#A15549" stroke-width="16" stroke-linecap="round" stroke-linejoin="round"/>
<path d="M448 117.281C448 151.229 434.514 183.786 410.51 207.791C386.505 231.796 353.948 245.281 320 245.281L192 245.281C158.052 245.281 125.495 231.796 101.49 207.791C77.4857 183.786 64 151.229 64 117.281" stroke="#A15549" stroke-width="16" stroke-linecap="round" stroke-linejoin="round"/>
<path d="M287.979 501.312L223.979 501.312C223.979 501.312 202.646 501.312 202.646 479.979L202.646 415.979C202.646 415.979 202.646 394.646 223.979 394.646L287.979 394.646C287.979 394.646 309.313 394.646 309.313 415.979L309.313 479.979C309.313 479.979 309.312 501.312 287.979 501.312Z" fill="#ECB7AA" stroke="#A15549" stroke-width="16" stroke-linecap="round" stroke-linejoin="round"/>
<path d="M287.979 117.312L223.979 117.312C223.979 117.312 202.646 117.312 202.646 95.9792L202.646 31.9792C202.646 31.9792 202.646 10.6458 223.979 10.6458L287.979 10.6458C287.979 10.6458 309.313 10.6458 309.313 31.9792L309.313 95.9792C309.313 95.9792 309.312 117.312 287.979 117.312Z" fill="#ECB7AA" stroke="#A15549" stroke-width="16" stroke-linecap="round" stroke-linejoin="round"/>
<path d="M479.979 117.312L415.979 117.312C415.979 117.312 394.646 117.312 394.646 95.9792L394.646 31.9792C394.646 31.9792 394.646 10.6458 415.979 10.6458L479.979 10.6458C479.979 10.6458 501.313 10.6458 501.313 31.9792L501.313 95.9792C501.313 95.9792 501.312 117.312 479.979 117.312Z" fill="#ECB7AA" stroke="#A15549" stroke-width="16" stroke-linecap="round" stroke-linejoin="round"/>
<path d="M95.9792 117.312L31.9792 117.312C31.9792 117.312 10.6458 117.312 10.6458 95.9792L10.6458 31.9792C10.6458 31.9792 10.6458 10.6458 31.9792 10.6458L95.9792 10.6458C95.9792 10.6458 117.313 10.6458 117.313 31.9792L117.313 95.9792C117.313 95.9792 117.312 117.312 95.9792 117.312Z" fill="#ECB7AA" stroke="#A15549" stroke-width="16" stroke-linecap="round" stroke-linejoin="round"/>
</svg>
