<svg width="512" height="512" viewBox="0 0 512 512" fill="none" xmlns="http://www.w3.org/2000/svg">
<path d="M384 106.672C384 103.843 382.876 101.13 380.876 99.1294C378.875 97.129 376.162 96.0052 373.333 96.0052H298.667V21.3385C298.667 18.5096 297.543 15.7965 295.542 13.7961C293.542 11.7957 290.829 10.6719 288 10.6719H224C221.171 10.6719 218.458 11.7957 216.458 13.7961C214.457 15.7965 213.333 18.5096 213.333 21.3385V96.0052H138.667C135.838 96.0052 133.125 97.129 131.124 99.1294C129.124 101.13 128 103.843 128 106.672V170.672C128 173.501 129.124 176.214 131.124 178.214C133.125 180.215 135.838 181.339 138.667 181.339H213.333V256.005C213.333 258.834 214.457 261.547 216.458 263.548C218.458 265.548 221.171 266.672 224 266.672H288C290.829 266.672 293.542 265.548 295.542 263.548C297.543 261.547 298.667 258.834 298.667 256.005V181.339H373.333C376.162 181.339 378.875 180.215 380.876 178.214C382.876 176.214 384 173.501 384 170.672V106.672Z" fill="#ECB7AA" stroke="#A15549" stroke-width="16" stroke-linecap="round" stroke-linejoin="round"/>
<path d="M74.6665 501.329L31.7865 447.995C18.0674 431.019 10.5427 409.875 10.4531 388.049V277.329C10.453 273.109 11.2878 268.93 12.9092 265.033C14.5307 261.137 16.9069 257.6 19.901 254.626C22.8951 251.651 26.448 249.299 30.3551 247.703C34.2621 246.108 38.4462 245.301 42.6665 245.329C51.1534 245.329 59.2927 248.7 65.2939 254.701C71.295 260.703 74.6665 268.842 74.6665 277.329V359.889" stroke="#A15549" stroke-width="16" stroke-linecap="round" stroke-linejoin="round"/>
<path d="M170.668 498.343V434.343C170.706 415.412 165.057 396.906 154.454 381.223L130.134 344.529C128.027 341.026 125.228 337.988 121.907 335.603C118.586 333.218 114.814 331.534 110.821 330.656C106.828 329.777 102.697 329.722 98.6821 330.493C94.6668 331.265 90.851 332.847 87.4678 335.143C81.4364 339.198 77.0906 345.313 75.2449 352.343C73.3991 359.373 74.1799 366.834 77.4411 373.329L106.668 421.329" stroke="#A15549" stroke-width="16" stroke-linecap="round" stroke-linejoin="round"/>
<path d="M437.328 501.328L479.995 447.568C493.714 430.592 501.239 409.448 501.328 387.621V277.328C501.328 268.841 497.957 260.702 491.956 254.701C485.954 248.7 477.815 245.328 469.328 245.328C460.841 245.328 452.702 248.7 446.701 254.701C440.7 260.702 437.328 268.841 437.328 277.328V360.101" stroke="#A15549" stroke-width="16" stroke-linecap="round" stroke-linejoin="round"/>
<path d="M341.328 498.343V434.343C341.29 415.412 346.939 396.906 357.542 381.223L381.862 344.529C383.969 341.026 386.769 337.988 390.089 335.603C393.41 333.218 397.182 331.534 401.175 330.656C405.168 329.777 409.299 329.722 413.314 330.493C417.329 331.265 421.145 332.847 424.528 335.143C430.56 339.198 434.905 345.313 436.751 352.343C438.597 359.373 437.816 366.834 434.555 373.329L405.328 421.329" stroke="#A15549" stroke-width="16" stroke-linecap="round" stroke-linejoin="round"/>
</svg>
