<svg width="512" height="512" viewBox="0 0 512 512" fill="none" xmlns="http://www.w3.org/2000/svg">
<path d="M437.329 479.996C437.329 485.654 435.081 491.08 431.08 495.081C427.08 499.082 421.653 501.329 415.995 501.329H95.9954C90.3375 501.329 84.9113 499.082 80.9105 495.081C76.9097 491.08 74.6621 485.654 74.6621 479.996V31.9959C74.6621 26.338 76.9097 20.9118 80.9105 16.911C84.9113 12.9102 90.3375 10.6626 95.9954 10.6626H300.497C306.154 10.6638 311.58 12.9122 315.579 16.9133L431.078 132.412C435.079 136.412 437.328 141.837 437.329 147.495V479.996Z" stroke="#A15549" stroke-width="12.8" stroke-linecap="round" stroke-linejoin="round"/>
<path d="M309.338 12.5874V117.334C309.338 122.992 311.586 128.418 315.586 132.419C319.587 136.42 325.013 138.667 330.671 138.667H435.418" fill="#ECB7AA"/>
<path d="M309.338 12.5874V117.334C309.338 122.992 311.586 128.418 315.586 132.419C319.587 136.42 325.013 138.667 330.671 138.667H435.418" stroke="#A15549" stroke-width="12.8" stroke-linecap="round" stroke-linejoin="round"/>
<path d="M138.662 394.663H373.329" stroke="#A15549" stroke-width="12.8" stroke-linecap="round" stroke-linejoin="round"/>
<path d="M138.662 437.337H373.329" stroke="#A15549" stroke-width="12.8" stroke-linecap="round" stroke-linejoin="round"/>
<path d="M330.671 234.671C330.671 231.842 329.547 229.129 327.547 227.128C325.547 225.128 322.834 224.004 320.005 224.004H288.005V192.004C288.005 189.175 286.881 186.462 284.88 184.462C282.88 182.461 280.167 181.337 277.338 181.337H234.671C231.842 181.337 229.129 182.461 227.129 184.462C225.128 186.462 224.005 189.175 224.005 192.004V224.004H192.005C189.176 224.004 186.462 225.128 184.462 227.128C182.462 229.129 181.338 231.842 181.338 234.671V277.337C181.338 280.166 182.462 282.879 184.462 284.88C186.462 286.88 189.176 288.004 192.005 288.004H224.005V320.004C224.005 322.833 225.128 325.546 227.129 327.547C229.129 329.547 231.842 330.671 234.671 330.671H277.338C280.167 330.671 282.88 329.547 284.88 327.547C286.881 325.546 288.005 322.833 288.005 320.004V288.004H320.005C322.834 288.004 325.547 286.88 327.547 284.88C329.547 282.879 330.671 280.166 330.671 277.337V234.671Z" fill="#ECB7AA" stroke="#A15549" stroke-width="12.8" stroke-linecap="round" stroke-linejoin="round"/>
</svg>
