<svg width="512" height="512" viewBox="0 0 512 512" fill="none" xmlns="http://www.w3.org/2000/svg">
<path d="M230.974 92.4375H157.506V154.836H95.1094V228.305H157.506V290.701H230.974V228.305H293.372V154.836H230.974V92.4375Z" fill="#ECB7AA" stroke="#A15549" stroke-width="16" stroke-linecap="round" stroke-linejoin="round"/>
<path d="M246.932 436.078H50.2344C41.7475 436.078 33.608 432.707 27.607 426.706C21.6059 420.705 18.2344 412.564 18.2344 404.078V52.0782C18.2344 43.5912 21.6059 35.4519 27.607 29.4508C33.608 23.4495 41.7475 20.0781 50.2344 20.0781H276.987C285.467 20.0799 293.601 23.4484 299.6 29.4435L360.869 90.7129C366.864 96.7116 370.233 104.845 370.235 113.326V201.402" stroke="#A15549" stroke-width="16" stroke-linecap="round" stroke-linejoin="round"/>
<path d="M293.375 490.177C293.375 463.56 303.95 438.03 322.772 419.21C341.593 400.387 367.122 389.812 393.74 389.812C420.36 389.812 445.887 400.387 464.709 419.21C483.532 438.03 494.107 463.56 494.107 490.177H293.375Z" fill="#ECB7AA" stroke="#A15549" stroke-width="16" stroke-linecap="round" stroke-linejoin="round"/>
<path d="M393.74 389.82C430.694 389.82 460.65 359.863 460.65 322.91C460.65 285.956 430.694 256 393.74 256C356.787 256 326.828 285.956 326.828 322.91C326.828 359.863 356.787 389.82 393.74 389.82Z" fill="#ECB7AA" stroke="#A15549" stroke-width="16" stroke-linecap="round" stroke-linejoin="round"/>
</svg>
