<svg width="512" height="512" viewBox="0 0 512 512" fill="none" xmlns="http://www.w3.org/2000/svg">
<path d="M427.3 277.863H346.404V346.569H277.7V427.465H346.404V496.167H427.3V427.465H496.004V346.569H427.3V277.863Z" fill="#ECB7AA" stroke="#A15549" stroke-width="12.8" stroke-linecap="round" stroke-linejoin="round"/>
<path d="M101.95 195.012H306.941" stroke="#A15549" stroke-width="12.8" stroke-linecap="round" stroke-linejoin="round"/>
<path d="M101.95 291.012H248.373" stroke="#A15549" stroke-width="12.8" stroke-linecap="round" stroke-linejoin="round"/>
<path d="M101.95 387.012H175.161" stroke="#A15549" stroke-width="12.8" stroke-linecap="round" stroke-linejoin="round"/>
<path d="M270.468 493.139H58.5186C48.8431 493.139 39.5639 489.297 32.7223 482.455C25.8807 475.614 22.0371 466.334 22.0371 456.659V91.8438C22.0371 82.1685 25.8807 72.8892 32.7223 66.0476C39.5639 59.206 48.8431 55.3625 58.5186 55.3625H113.241" stroke="#A15549" stroke-width="12.8" stroke-linecap="round" stroke-linejoin="round"/>
<path d="M259.163 18.875H149.719C129.571 18.875 113.237 35.2082 113.237 55.3565V73.5971C113.237 93.7454 129.571 110.079 149.719 110.079H259.163C279.31 110.079 295.645 93.7454 295.645 73.5971V55.3565C295.645 35.2082 279.31 18.875 259.163 18.875Z" fill="#ECB7AA" stroke="#A15549" stroke-width="12.8" stroke-linecap="round" stroke-linejoin="round"/>
<path d="M295.65 55.3625H350.373C360.049 55.3625 369.327 59.206 376.169 66.0476C383.01 72.8892 386.855 82.1685 386.855 91.8438V222.41" stroke="#A15549" stroke-width="12.8" stroke-linecap="round" stroke-linejoin="round"/>
</svg>
