<svg width="512" height="512" viewBox="0 0 512 512" fill="none" xmlns="http://www.w3.org/2000/svg">
<path d="M256.003 383.995C226.548 383.995 202.669 407.873 202.669 437.328C202.669 466.783 226.548 490.661 256.003 490.661C285.458 490.661 309.336 466.783 309.336 437.328C309.336 407.873 285.458 383.995 256.003 383.995ZM128.003 298.661C128.003 328.116 104.124 351.995 74.6693 351.995C45.2141 351.995 21.3359 328.116 21.3359 298.661C21.3359 269.207 45.2141 245.328 74.6693 245.328C104.124 245.328 128.003 269.207 128.003 298.661ZM384.003 298.661C384.003 328.116 407.881 351.995 437.336 351.995C466.791 351.995 490.669 328.116 490.669 298.661C490.669 269.207 466.791 245.328 437.336 245.328C407.881 245.328 384.003 269.207 384.003 298.661Z" fill="#ECB7AA" stroke="#A15549" stroke-width="16" stroke-linecap="round" stroke-linejoin="round"/>
<path d="M341.333 106.661L256 21.3281L170.667 106.661M256 21.3281V384M128 298.661C198.692 298.661 256 241.354 256 170.661C256 241.354 313.308 298.661 384 298.661" stroke="#A15549" stroke-width="16" stroke-linecap="round" stroke-linejoin="round"/>
</svg>
