<svg width="512" height="512" viewBox="0 0 512 512" fill="none" xmlns="http://www.w3.org/2000/svg">
<path d="M377.593 297.6C428.793 297.6 469.326 257.067 469.326 205.866C469.326 154.666 428.793 114.134 377.593 114.134C358.393 114.134 341.326 120.533 326.393 131.2C313.593 65.0665 255.993 16 187.725 16C108.791 16 46.9248 80.0002 46.9248 156.8C46.9248 235.733 110.925 297.6 187.725 297.6H377.593Z" fill="#ECB7AA" stroke="#A15549" stroke-width="12.8" stroke-miterlimit="10" stroke-linecap="round" stroke-linejoin="round"/>
<path d="M256.016 492.796C279.581 492.796 298.683 473.694 298.683 450.129C298.683 426.564 279.581 407.462 256.016 407.462C232.451 407.462 213.35 426.564 213.35 450.129C213.35 473.694 232.451 492.796 256.016 492.796Z" stroke="#A15549" stroke-width="12.8" stroke-miterlimit="10" stroke-linecap="round" stroke-linejoin="round"/>
<path d="M64.0046 482.133C87.5687 482.133 106.671 463.032 106.671 439.467C106.671 415.902 87.5687 396.8 64.0046 396.8C40.4404 396.8 21.3379 415.902 21.3379 439.467C21.3379 463.032 40.4404 482.133 64.0046 482.133Z" stroke="#A15549" stroke-width="12.8" stroke-miterlimit="10" stroke-linecap="round" stroke-linejoin="round"/>
<path d="M448.016 482.133C471.581 482.133 490.683 463.032 490.683 439.467C490.683 415.902 471.581 396.8 448.016 396.8C424.451 396.8 405.35 415.902 405.35 439.467C405.35 463.032 424.451 482.133 448.016 482.133Z" stroke="#A15549" stroke-width="12.8" stroke-miterlimit="10" stroke-linecap="round" stroke-linejoin="round"/>
<path d="M98.1377 417.06L256.005 298.062V410.568" stroke="#A15549" stroke-width="12.8" stroke-miterlimit="10" stroke-linecap="round" stroke-linejoin="round"/>
<path d="M413.867 417.06L256 298.062" stroke="#A15549" stroke-width="12.8" stroke-miterlimit="10" stroke-linecap="round" stroke-linejoin="round"/>
</svg>
