<svg width="512" height="512" viewBox="0 0 512 512" fill="none" xmlns="http://www.w3.org/2000/svg">
<path d="M175.953 432H47.9531C39.4661 432 31.3268 428.629 25.3257 422.628C19.3246 416.627 15.9531 408.486 15.9531 400V48C15.9531 39.5132 19.3246 31.3737 25.3257 25.3726C31.3268 19.3714 39.4661 16 47.9531 16H367.954C376.44 16 384.579 19.3714 390.58 25.3726C396.581 31.3737 399.954 39.5132 399.954 48V192" stroke="#A15549" stroke-width="16" stroke-linecap="round" stroke-linejoin="round"/>
<path d="M105.926 86.875H162.372C188.649 86.875 209.952 108.177 209.952 134.455C209.952 160.732 188.649 182.035 162.372 182.035H105.922" stroke="#A15549" stroke-width="16" stroke-linecap="round" stroke-linejoin="round"/>
<path d="M103.75 86.875V268.162" stroke="#A15549" stroke-width="16" stroke-linecap="round" stroke-linejoin="round"/>
<path d="M148.547 182.562L271.356 305.374" stroke="#A15549" stroke-width="16" stroke-linecap="round" stroke-linejoin="round"/>
<path d="M271.386 206.766L172.797 305.356" stroke="#A15549" stroke-width="16" stroke-linecap="round" stroke-linejoin="round"/>
<path d="M374.919 288.587C388.131 276.097 405.694 269.253 423.875 269.507C442.055 269.763 459.418 277.099 472.276 289.955C485.131 302.812 492.468 320.176 492.724 338.356C492.978 356.536 486.134 374.1 473.643 387.312L389.502 471.452C376.363 484.031 358.836 490.985 340.647 490.838C322.458 490.691 305.046 483.452 292.111 470.665C279.177 457.876 271.742 440.547 271.388 422.362C271.034 404.176 277.79 386.569 290.217 373.289L374.919 288.587Z" fill="#ECB7AA" stroke="#A15549" stroke-width="16" stroke-linecap="round" stroke-linejoin="round"/>
<path d="M336.75 326.734L435.474 425.461" stroke="#A15549" stroke-width="16" stroke-linecap="round" stroke-linejoin="round"/>
</svg>
