<svg width="512" height="512" viewBox="0 0 512 512" fill="none" xmlns="http://www.w3.org/2000/svg">
<path d="M27.9728 436.875L237.295 54.6246C239.134 51.2694 241.84 48.4703 245.132 46.5204C248.424 44.5706 252.179 43.5417 256.005 43.5417C259.831 43.5417 263.586 44.5706 266.878 46.5204C270.169 48.4703 272.876 51.2694 274.714 54.6246L484.037 436.875C485.814 440.124 486.715 443.779 486.652 447.481C486.588 451.183 485.562 454.805 483.675 457.991C481.787 461.176 479.103 463.816 475.886 465.649C472.669 467.483 469.03 468.448 465.327 468.449H46.6821C42.9793 468.448 39.3405 467.483 36.1236 465.649C32.9067 463.816 30.2224 461.176 28.3347 457.991C26.4471 454.805 25.4211 451.183 25.3576 447.481C25.2942 443.779 26.1954 440.124 27.9728 436.875Z" fill="#ECB7AA" stroke="#A15549" stroke-width="21.3333" stroke-linecap="round" stroke-linejoin="round"/>
<path d="M256 201.792V340.458" stroke="#A15549" stroke-width="21.3333" stroke-linecap="round" stroke-linejoin="round"/>
<path d="M256 388.458C257.414 388.458 258.771 389.02 259.771 390.021C260.771 391.021 261.333 392.377 261.333 393.792" stroke="#A15549" stroke-width="21.3333" stroke-linecap="round" stroke-linejoin="round"/>
<path d="M250.667 393.792C250.667 392.377 251.229 391.021 252.229 390.021C253.229 389.02 254.586 388.458 256 388.458" stroke="#A15549" stroke-width="21.3333" stroke-linecap="round" stroke-linejoin="round"/>
<path d="M256 399.125C254.586 399.125 253.229 398.563 252.229 397.563C251.229 396.563 250.667 395.206 250.667 393.792" stroke="#A15549" stroke-width="21.3333" stroke-linecap="round" stroke-linejoin="round"/>
<path d="M261.333 393.792C261.333 395.206 260.771 396.563 259.771 397.563C258.771 398.563 257.414 399.125 256 399.125" stroke="#A15549" stroke-width="21.3333" stroke-linecap="round" stroke-linejoin="round"/>
</svg>
