<svg width="512" height="512" viewBox="0 0 512 512" fill="none" xmlns="http://www.w3.org/2000/svg">
<path d="M458.662 95.9959C458.662 107.312 454.167 118.164 446.165 126.166C438.163 134.167 427.311 138.663 415.995 138.663H53.3288C42.0129 138.663 31.1605 134.167 23.159 126.166C15.1573 118.164 10.6621 107.312 10.6621 95.9959V53.3293C10.6621 42.0134 15.1573 31.1609 23.159 23.1595C31.1605 15.1578 42.0129 10.6626 53.3288 10.6626H415.995C427.311 10.6626 438.163 15.1578 446.165 23.1595C454.167 31.1609 458.662 42.0134 458.662 53.3293V95.9959Z" fill="#ECB7AA" stroke="#A15549" stroke-width="12.8" stroke-linecap="round" stroke-linejoin="round"/>
<path d="M53.3288 266.663C42.0129 266.663 31.1605 262.168 23.159 254.166C15.1573 246.163 10.6621 235.311 10.6621 223.996V181.329C10.6621 170.013 15.1573 159.161 23.159 151.159C31.1605 143.158 42.0129 138.663 53.3288 138.663H415.995C427.311 138.663 438.163 143.158 446.165 151.159C454.167 159.161 458.662 170.013 458.662 181.329V213.329" stroke="#A15549" stroke-width="12.8" stroke-linecap="round" stroke-linejoin="round"/>
<path d="M191.995 394.663H53.3288C42.0129 394.663 31.1605 390.168 23.159 382.166C15.1573 374.163 10.6621 363.311 10.6621 351.996V309.329C10.6621 298.014 15.1573 287.162 23.159 279.16C31.1605 271.158 42.0129 266.663 53.3288 266.663H223.995" stroke="#A15549" stroke-width="12.8" stroke-linecap="round" stroke-linejoin="round"/>
<path d="M373.338 501.337C444.03 501.337 501.338 444.03 501.338 373.337C501.338 302.645 444.03 245.337 373.338 245.337C302.646 245.337 245.338 302.645 245.338 373.337C245.338 444.03 302.646 501.337 373.338 501.337Z" fill="#ECB7AA" stroke="#A15549" stroke-width="12.8" stroke-linecap="round" stroke-linejoin="round"/>
<path d="M416.005 373.337H373.338V309.337" stroke="#A15549" stroke-width="12.8" stroke-linecap="round" stroke-linejoin="round"/>
<path d="M101.333 80.0041C98.3878 80.0041 96 77.6162 96 74.6707C96 71.7252 98.3878 69.3374 101.333 69.3374" stroke="#A15549" stroke-width="12.8"/>
<path d="M101.338 80.0041C104.283 80.0041 106.671 77.6162 106.671 74.6707C106.671 71.7252 104.283 69.3374 101.338 69.3374" stroke="#A15549" stroke-width="12.8"/>
<path d="M175.995 80.0041C173.05 80.0041 170.662 77.6162 170.662 74.6707C170.662 71.7252 173.05 69.3374 175.995 69.3374" stroke="#A15549" stroke-width="12.8"/>
<path d="M176 80.0041C178.945 80.0041 181.333 77.6162 181.333 74.6707C181.333 71.7252 178.945 69.3374 176 69.3374" stroke="#A15549" stroke-width="12.8"/>
<path d="M101.333 208.004C98.3878 208.004 96 205.616 96 202.671C96 199.725 98.3878 197.337 101.333 197.337" stroke="#A15549" stroke-width="12.8"/>
<path d="M101.338 208.004C104.283 208.004 106.671 205.616 106.671 202.671C106.671 199.725 104.283 197.337 101.338 197.337" stroke="#A15549" stroke-width="12.8"/>
<path d="M101.333 336.004C98.3878 336.004 96 333.617 96 330.671C96 327.725 98.3878 325.337 101.333 325.337" stroke="#A15549" stroke-width="12.8"/>
<path d="M101.338 336.004C104.283 336.004 106.671 333.617 106.671 330.671C106.671 327.725 104.283 325.337 101.338 325.337" stroke="#A15549" stroke-width="12.8"/>
<path d="M175.995 208.004C173.05 208.004 170.662 205.616 170.662 202.671C170.662 199.725 173.05 197.337 175.995 197.337" stroke="#A15549" stroke-width="12.8"/>
<path d="M176 208.004C178.945 208.004 181.333 205.616 181.333 202.671C181.333 199.725 178.945 197.337 176 197.337" stroke="#A15549" stroke-width="12.8"/>
<path d="M175.995 336.004C173.05 336.004 170.662 333.617 170.662 330.671C170.662 327.725 173.05 325.337 175.995 325.337" stroke="#A15549" stroke-width="12.8"/>
<path d="M176 336.004C178.945 336.004 181.333 333.617 181.333 330.671C181.333 327.725 178.945 325.337 176 325.337" stroke="#A15549" stroke-width="12.8"/>
</svg>
