<svg width="512" height="512" viewBox="0 0 512 512" fill="none" xmlns="http://www.w3.org/2000/svg">
<path d="M458.672 96.0052C458.672 107.321 454.177 118.174 446.175 126.175C438.173 134.177 427.32 138.672 416.005 138.672H53.3385C42.0227 138.672 31.1702 134.177 23.1687 126.175C15.1671 118.174 10.6719 107.321 10.6719 96.0052V53.3385C10.6719 42.0227 15.1671 31.1702 23.1687 23.1687C31.1702 15.1671 42.0227 10.6719 53.3385 10.6719H416.005C427.32 10.6719 438.173 15.1671 446.175 23.1687C454.177 31.1702 458.672 42.0227 458.672 53.3385V96.0052Z" fill="#ECB7AA" stroke="#A15549" stroke-width="16" stroke-linecap="round" stroke-linejoin="round"/>
<path d="M53.3385 266.672C42.0227 266.672 31.1702 262.177 23.1687 254.175C15.1671 246.173 10.6719 235.32 10.6719 224.005V181.339C10.6719 170.023 15.1671 159.17 23.1687 151.169C31.1702 143.167 42.0227 138.672 53.3385 138.672H416.005C427.32 138.672 438.173 143.167 446.175 151.169C454.177 159.17 458.672 170.023 458.672 181.339V202.672" stroke="#A15549" stroke-width="16" stroke-linecap="round" stroke-linejoin="round"/>
<path d="M192.005 394.672H53.3385C42.0227 394.672 31.1702 390.177 23.1687 382.175C15.1671 374.173 10.6719 363.32 10.6719 352.005V309.339C10.6719 298.023 15.1671 287.171 23.1687 279.169C31.1702 271.167 42.0227 266.672 53.3385 266.672H320.005" stroke="#A15549" stroke-width="16" stroke-linecap="round" stroke-linejoin="round"/>
<path d="M334.928 475.737L245.328 501.337L270.928 411.737L424.08 258.585C428.283 254.382 433.271 251.048 438.762 248.773C444.253 246.499 450.137 245.328 456.08 245.328C462.024 245.328 467.907 246.499 473.399 248.773C478.89 251.048 483.877 254.382 488.08 258.585C492.283 262.785 495.615 267.775 497.889 273.266C500.165 278.755 501.334 284.641 501.334 290.585C501.334 296.526 500.165 302.412 497.889 307.901C495.615 313.392 492.283 318.382 488.08 322.585L334.928 475.737Z" fill="#ECB7AA" stroke="#A15549" stroke-width="16" stroke-linecap="round" stroke-linejoin="round"/>
<path d="M404.875 277.797L468.875 341.797" stroke="#A15549" stroke-width="16" stroke-linecap="round" stroke-linejoin="round"/>
<path d="M270.938 411.734L334.938 475.734" stroke="#A15549" stroke-width="16" stroke-linecap="round" stroke-linejoin="round"/>
<path d="M101.333 79.9948C98.3878 79.9948 96 77.607 96 74.6615C96 71.716 98.3878 69.3281 101.333 69.3281" stroke="#A15549" stroke-width="16"/>
<path d="M101.328 79.9948C104.274 79.9948 106.661 77.607 106.661 74.6615C106.661 71.716 104.274 69.3281 101.328 69.3281" stroke="#A15549" stroke-width="16"/>
<path d="M176.005 79.9948C173.06 79.9948 170.672 77.607 170.672 74.6615C170.672 71.716 173.06 69.3281 176.005 69.3281" stroke="#A15549" stroke-width="16"/>
<path d="M176 79.9948C178.945 79.9948 181.333 77.607 181.333 74.6615C181.333 71.716 178.945 69.3281 176 69.3281" stroke="#A15549" stroke-width="16"/>
<path d="M101.333 207.995C98.3878 207.995 96 205.607 96 202.661C96 199.716 98.3878 197.328 101.333 197.328" stroke="#A15549" stroke-width="16"/>
<path d="M101.328 207.995C104.274 207.995 106.661 205.607 106.661 202.661C106.661 199.716 104.274 197.328 101.328 197.328" stroke="#A15549" stroke-width="16"/>
<path d="M101.333 335.995C98.3878 335.995 96 333.608 96 330.661C96 327.715 98.3878 325.328 101.333 325.328" stroke="#A15549" stroke-width="16"/>
<path d="M101.328 335.995C104.274 335.995 106.661 333.608 106.661 330.661C106.661 327.715 104.274 325.328 101.328 325.328" stroke="#A15549" stroke-width="16"/>
<path d="M176.005 207.995C173.06 207.995 170.672 205.607 170.672 202.661C170.672 199.716 173.06 197.328 176.005 197.328" stroke="#A15549" stroke-width="16"/>
<path d="M176 207.995C178.945 207.995 181.333 205.607 181.333 202.661C181.333 199.716 178.945 197.328 176 197.328" stroke="#A15549" stroke-width="16"/>
<path d="M176.005 335.995C173.06 335.995 170.672 333.608 170.672 330.661C170.672 327.715 173.06 325.328 176.005 325.328" stroke="#A15549" stroke-width="16"/>
<path d="M176 335.995C178.945 335.995 181.333 333.608 181.333 330.661C181.333 327.715 178.945 325.328 176 325.328" stroke="#A15549" stroke-width="16"/>
</svg>
