<svg width="512" height="512" viewBox="0 0 512 512" fill="none" xmlns="http://www.w3.org/2000/svg">
<path d="M32.0052 10.6875H480.005C480.005 10.6875 501.339 10.6875 501.339 32.0208V480.021C501.339 480.021 501.339 501.354 480.005 501.354H32.0052C32.0052 501.354 10.6719 501.354 10.6719 480.021V32.0208C10.6719 32.0208 10.6719 10.6875 32.0052 10.6875Z" stroke="#A15549" stroke-width="16" stroke-linecap="round" stroke-linejoin="round"/>
<path d="M213.328 117.354C213.328 128.67 217.823 139.523 225.825 147.524C233.826 155.526 244.679 160.021 255.995 160.021C267.311 160.021 278.163 155.526 286.165 147.524C294.166 139.523 298.661 128.67 298.661 117.354C298.661 106.038 294.166 95.1858 286.165 87.1843C278.163 79.1827 267.311 74.6875 255.995 74.6875C244.679 74.6875 233.826 79.1827 225.825 87.1843C217.823 95.1858 213.328 106.038 213.328 117.354Z" fill="#ECB7AA" stroke="#A15549" stroke-width="16" stroke-linecap="round" stroke-linejoin="round"/>
<path d="M298.625 117.359H437.782" stroke="#A15549" stroke-width="16" stroke-linecap="round" stroke-linejoin="round"/>
<path d="M75.125 117.359H213.258" stroke="#A15549" stroke-width="16" stroke-linecap="round" stroke-linejoin="round"/>
<path d="M128 256.026C128 267.342 132.495 278.194 140.497 286.196C148.498 294.197 159.351 298.693 170.667 298.693C181.983 298.693 192.835 294.197 200.837 286.196C208.838 278.194 213.333 267.342 213.333 256.026C213.333 244.71 208.838 233.858 200.837 225.856C192.835 217.855 181.983 213.359 170.667 213.359C159.351 213.359 148.498 217.855 140.497 225.856C132.495 233.858 128 244.71 128 256.026Z" fill="#ECB7AA" stroke="#A15549" stroke-width="16" stroke-linecap="round" stroke-linejoin="round"/>
<path d="M213.25 256.016H437.783" stroke="#A15549" stroke-width="16" stroke-linecap="round" stroke-linejoin="round"/>
<path d="M75.125 256.016H127.925" stroke="#A15549" stroke-width="16" stroke-linecap="round" stroke-linejoin="round"/>
<path d="M170.672 394.682C170.672 405.998 175.167 416.851 183.169 424.852C191.17 432.854 202.023 437.349 213.339 437.349C224.654 437.349 235.507 432.854 243.508 424.852C251.51 416.851 256.005 405.998 256.005 394.682C256.005 383.366 251.51 372.514 243.508 364.512C235.507 356.511 224.654 352.016 213.339 352.016C202.023 352.016 191.17 356.511 183.169 364.512C175.167 372.514 170.672 383.366 170.672 394.682Z" fill="#ECB7AA" stroke="#A15549" stroke-width="16" stroke-linecap="round" stroke-linejoin="round"/>
<path d="M255.922 394.688H437.789" stroke="#A15549" stroke-width="16" stroke-linecap="round" stroke-linejoin="round"/>
<path d="M75.125 394.688H170.677" stroke="#A15549" stroke-width="16" stroke-linecap="round" stroke-linejoin="round"/>
</svg>
