<svg width="512" height="512" viewBox="0 0 512 512" fill="none" xmlns="http://www.w3.org/2000/svg">
<path d="M32 80.4254V243.412C32.6166 297.257 49.7707 349.611 81.138 393.38C112.505 437.149 156.569 470.218 207.36 488.105L231.253 496.852C247.211 502.823 264.789 502.823 280.747 496.852L304.64 488.105C355.431 470.218 399.495 437.149 430.862 393.38C462.229 349.611 479.383 297.257 480 243.412V80.4254C479.969 74.054 478.074 67.831 474.548 62.5238C471.023 57.2166 466.021 53.0573 460.16 50.5588C395.517 23.5519 326.055 9.97891 256 10.6654C185.945 9.97891 116.483 23.5519 51.84 50.5588C45.9789 53.0573 40.9772 57.2166 37.4517 62.5238C33.9262 67.831 32.031 74.054 32 80.4254Z" stroke="#A15549" stroke-width="16" stroke-linecap="round" stroke-linejoin="round"/>
<path d="M181.333 181.328H330.667C330.667 181.328 352 181.328 352 202.661V330.661C352 330.661 352 351.995 330.667 351.995H181.333C181.333 351.995 160 351.995 160 330.661V202.661C160 202.661 160 181.328 181.333 181.328Z" fill="#ECB7AA" stroke="#A15549" stroke-width="16" stroke-linecap="round" stroke-linejoin="round"/>
<path d="M229.328 266.667C229.328 273.739 232.138 280.522 237.139 285.523C242.14 290.524 248.922 293.333 255.995 293.333C263.067 293.333 269.85 290.524 274.851 285.523C279.852 280.522 282.661 273.739 282.661 266.667C282.661 259.594 279.852 252.811 274.851 247.81C269.85 242.81 263.067 240 255.995 240C248.922 240 242.14 242.81 237.139 247.81C232.138 252.811 229.328 259.594 229.328 266.667Z" stroke="#A15549" stroke-width="16" stroke-linecap="round" stroke-linejoin="round"/>
<path d="M309.339 181.328V138.661C309.339 124.517 303.72 110.951 293.718 100.949C283.716 90.9472 270.15 85.3281 256.005 85.3281C241.86 85.3281 228.295 90.9472 218.293 100.949C208.291 110.951 202.672 124.517 202.672 138.661" stroke="#A15549" stroke-width="16" stroke-linecap="round" stroke-linejoin="round"/>
</svg>
