<svg width="512" height="512" viewBox="0 0 512 512" fill="none" xmlns="http://www.w3.org/2000/svg">
<path d="M437.334 479.997C437.334 485.655 435.086 491.082 431.085 495.082C427.084 499.083 421.658 501.331 416 501.331H74.667V10.6641H416C421.658 10.6641 427.084 12.9117 431.085 16.9125C435.086 20.9132 437.334 26.3394 437.334 31.9974V479.997Z" fill="#ECB7AA" stroke="#A15549" stroke-width="16" stroke-linecap="round" stroke-linejoin="round"/>
<path d="M74.667 10.6641H32.0003C26.3424 10.6641 20.9162 12.9117 16.9154 16.9125C12.9146 20.9132 10.667 26.3394 10.667 31.9974V479.997C10.667 485.655 12.9146 491.082 16.9154 495.082C20.9162 499.083 26.3424 501.331 32.0003 501.331H74.667" stroke="#A15549" stroke-width="16" stroke-linecap="round" stroke-linejoin="round"/>
<path d="M437.333 42.6641H458.666C469.972 42.6978 480.805 47.2039 488.799 55.1981C496.793 63.1924 501.299 74.0252 501.333 85.3307V149.331H437.333" stroke="#A15549" stroke-width="16" stroke-linecap="round" stroke-linejoin="round"/>
<path d="M437.333 149.336H501.333V256.003H437.333" stroke="#A15549" stroke-width="16" stroke-linecap="round" stroke-linejoin="round"/>
<path d="M437.333 256H501.333V362.667H437.333" stroke="#A15549" stroke-width="16" stroke-linecap="round" stroke-linejoin="round"/>
<path d="M437.333 362.664H501.333V426.664C501.299 437.97 496.793 448.802 488.799 456.797C480.805 464.791 469.972 469.297 458.666 469.331H437.333" stroke="#A15549" stroke-width="16" stroke-linecap="round" stroke-linejoin="round"/>
<path d="M352 373.331C352 345.041 340.762 317.91 320.758 297.906C300.754 277.902 273.623 266.664 245.334 266.664C217.044 266.664 189.913 277.902 169.909 297.906C149.905 317.91 138.667 345.041 138.667 373.331H352Z" stroke="#A15549" stroke-width="16" stroke-linecap="round" stroke-linejoin="round"/>
<path d="M181.333 170.664C181.333 187.638 188.076 203.917 200.078 215.919C212.08 227.921 228.359 234.664 245.333 234.664C262.307 234.664 278.586 227.921 290.588 215.919C302.59 203.917 309.333 187.638 309.333 170.664C309.333 153.69 302.59 137.412 290.588 125.409C278.586 113.407 262.307 106.664 245.333 106.664C228.359 106.664 212.08 113.407 200.078 125.409C188.076 137.412 181.333 153.69 181.333 170.664Z" stroke="#A15549" stroke-width="16" stroke-linecap="round" stroke-linejoin="round"/>
</svg>
