<svg width="512" height="512" viewBox="0 0 512 512" fill="none" xmlns="http://www.w3.org/2000/svg">
<path d="M496 192V48C496 39.5131 492.629 31.3737 486.627 25.3726C480.626 19.3714 472.487 16 464 16H48C39.5131 16 31.3737 19.3714 25.3726 25.3726C19.3714 31.3737 16 39.5131 16 48V336C16 344.487 19.3714 352.626 25.3726 358.627C31.3737 364.629 39.5131 368 48 368H213.333" stroke="#A15549" stroke-width="12.8" stroke-linecap="round" stroke-linejoin="round"/>
<path d="M114.85 125.137C114.85 131.766 116.155 138.329 118.692 144.453C121.228 150.577 124.946 156.141 129.633 160.828C134.32 165.515 139.885 169.233 146.008 171.77C152.132 174.306 158.696 175.612 165.324 175.612C171.953 175.612 178.516 174.306 184.64 171.77C190.764 169.233 196.328 165.515 201.015 160.828C205.702 156.141 209.42 150.577 211.957 144.453C214.493 138.329 215.799 131.766 215.799 125.137C215.799 111.751 210.481 98.9121 201.015 89.4463C191.549 79.9805 178.711 74.6626 165.324 74.6626C151.938 74.6626 139.099 79.9805 129.633 89.4463C120.167 98.9121 114.85 111.751 114.85 125.137Z" fill="#ECB7AA" stroke="#A15549" stroke-width="12.8" stroke-linecap="round" stroke-linejoin="round"/>
<path d="M78.7998 276.566C78.7998 265.203 81.0379 253.951 85.3864 243.453C89.7348 232.955 96.1084 223.416 104.143 215.381C112.178 207.346 121.717 200.973 132.215 196.624C142.713 192.276 153.965 190.038 165.328 190.038C176.691 190.038 187.943 192.276 198.441 196.624C208.939 200.973 218.477 207.346 226.512 215.381C234.547 223.416 240.921 232.955 245.269 243.453C249.618 253.951 251.856 265.203 251.856 276.566H78.7998Z" fill="#ECB7AA" stroke="#A15549" stroke-width="12.8" stroke-linecap="round" stroke-linejoin="round"/>
<path d="M304 96H400" stroke="#A15549" stroke-width="12.8" stroke-linecap="round" stroke-linejoin="round"/>
<path d="M304 160H432" stroke="#A15549" stroke-width="12.8" stroke-linecap="round" stroke-linejoin="round"/>
<path d="M325.338 336H464.005C464.005 336 496.005 336 496.005 368V464C496.005 464 496.005 496 464.005 496H325.338C325.338 496 293.338 496 293.338 464V368C293.338 368 293.338 336 325.338 336Z" fill="#ECB7AA" stroke="#A15549" stroke-width="12.8" stroke-linecap="round" stroke-linejoin="round"/>
<path d="M320 336.452V304.004C320 284.201 327.867 265.209 341.869 251.207C355.872 237.204 374.864 229.337 394.667 229.337C414.47 229.337 433.461 237.204 447.464 251.207C461.467 265.209 469.333 284.201 469.333 304.004V336.452" stroke="#A15549" stroke-width="12.8" stroke-linecap="round" stroke-linejoin="round"/>
<path d="M362.675 415.996L384.008 437.329L426.675 394.663" stroke="#A15549" stroke-width="12.8" stroke-linecap="round" stroke-linejoin="round"/>
</svg>
